# xmcd
#
# Track frame offsets: 
#        150
#        10147
#        23607
#        40985
#        54252
#        74560
#        89747
#        109822
#        123147
#        132207
#        146110
#        169375
#
# Disc length: 2356 seconds
#
# Revision: 1
# Processed by: cddbd v1.5.2PL0 Copyright (c) Steve Scherf et al.
# Submitted via: ExactAudioCopy v0.95b4
#
DISCID=a709320c
DTITLE=Αλκίνοος Ιωαννίδης - Ανεμοδείκτης
DYEAR=1999
DGENRE=Folk
TTITLE0=Παράκληση
TTITLE1=Με Τόσα Ψέματα
TTITLE2=Στην Αγορά Του Κόσμου
TTITLE3=Θα 'μαι Κοντά Σου (Όταν Με Θες)
TTITLE4=Κόσμος Πάει Κι Έρχεται
TTITLE5=Όνειρο Ήτανε
TTITLE6=Αδιέξοδο
TTITLE7=Ταξίδι
TTITLE8=Σπασμένο
TTITLE9=Μεσάνυχτα Σαββάτου
TTITLE10=Requiem
TTITLE11=Μικρό Μου Τραγουδάκι
EXTD=
EXTT0=
EXTT1=
EXTT2=
EXTT3=
EXTT4=
EXTT5=
EXTT6=
EXTT7=
EXTT8=
EXTT9=
EXTT10=
EXTT11=
PLAYORDER=
